<svg width="25" height="24" viewBox="0 0 25 24" fill="none" xmlns="http://www.w3.org/2000/svg">
<path d="M17.0557 17.8444L16.9283 17.7802H16.7857H11.4C10.27 17.7802 9.45858 17.7798 8.82167 17.7277C8.19176 17.6763 7.78558 17.5774 7.45643 17.4097C6.81668 17.0837 6.29655 16.5636 5.97058 15.9238C5.80287 15.5947 5.70397 15.1885 5.6525 14.5586C5.60047 13.9217 5.6 13.1103 5.6 11.9802V10.4C5.6 9.26999 5.60047 8.45857 5.6525 7.82167C5.70397 7.19176 5.80287 6.78558 5.97058 6.45643C6.29655 5.81668 6.81668 5.29655 7.45643 4.97058C7.78558 4.80287 8.19176 4.70397 8.82167 4.6525C9.45858 4.60047 10.27 4.6 11.4 4.6H13.6C14.73 4.6 15.5414 4.60047 16.1783 4.6525C16.8082 4.70397 17.2144 4.80287 17.5436 4.97058C18.1833 5.29655 18.7035 5.81668 19.0294 6.45643C19.1971 6.78558 19.296 7.19176 19.3475 7.82167C19.3995 8.45858 19.4 9.26999 19.4 10.4V17.4021C19.4 17.8437 19.3994 18.1335 19.3799 18.347C19.3705 18.4495 19.3581 18.5149 19.3462 18.557C19.3406 18.577 19.3356 18.5896 19.3324 18.5967C19.3316 18.5983 19.3309 18.5997 19.3304 18.6009C19.3297 18.6022 19.3292 18.6031 19.3288 18.6038L19.3276 18.6058C19.2643 18.6961 19.1666 18.7562 19.0576 18.7721L19.0553 18.7723C19.0537 18.7724 19.0511 18.7724 19.0472 18.7723C19.0394 18.772 19.026 18.7708 19.0056 18.7668C18.9626 18.7585 18.8987 18.7401 18.8029 18.7023C18.6035 18.6237 18.3444 18.4938 17.95 18.2951L17.0557 17.8444Z" stroke="#D1D5DB" stroke-width="1.2"/>
<path d="M10.5 11.6248C10.9571 11.6248 13.3571 11.6248 14.5 11.6248" stroke="#D1D5DB" stroke-width="1.2" stroke-linecap="round"/>
</svg>
