<svg width="24" height="24" viewBox="0 0 24 24" fill="none" xmlns="http://www.w3.org/2000/svg">
<rect x="5.6" y="7.6" width="9.8" height="10.8" rx="2.4" stroke="#4B5563" stroke-width="1.2" stroke-linecap="round"/>
<path d="M8.5 11.3613H12.5" stroke="#4B5563" stroke-linecap="round" stroke-linejoin="round"/>
<path d="M8.5 14.7373H12.5" stroke="#4B5563" stroke-linecap="round" stroke-linejoin="round"/>
<path d="M10 7.43762V7.43762C10 7.03102 10 6.82772 10.0295 6.65798C10.1739 5.8257 10.8257 5.17392 11.658 5.02946C11.8277 5 12.031 5 12.4376 5H15.8C16.9201 5 17.4802 5 17.908 5.21799C18.2843 5.40973 18.5903 5.71569 18.782 6.09202C19 6.51984 19 7.07989 19 8.2V13.1875C19 13.9437 19 14.3218 18.8991 14.6274C18.7004 15.2287 18.2287 15.7004 17.6274 15.8991C17.3218 16 16.9437 16 16.1875 16V16" stroke="#4B5563" stroke-width="1.2" stroke-linecap="round"/>
</svg>
