<svg width="31" height="52" viewBox="0 0 31 52" fill="none" xmlns="http://www.w3.org/2000/svg">
<circle cx="14.749" cy="25.5703" r="3.5" stroke="black" stroke-width="0.5"/>
<path d="M16.7488 25.4659C16.7293 26.3003 15.6196 26.9243 14.7387 26.0423C13.7144 27.1011 12.8309 26.348 12.7544 25.6899C12.6778 25.0318 13.4266 24.1025 14.7387 25.1603C15.6196 24.1019 16.7682 24.6315 16.7488 25.4659Z" stroke="black" stroke-width="0.5"/>
<path d="M15.8607 1.00732C14.3602 0.661047 5.71313 12.6939 1.57715 18.7536L14.4324 14.8801M15.8607 1.00732C17.3612 1.35358 25.9121 12.9824 30 18.7536L14.4324 14.8801M15.8607 1.00732L15.464 4.97498M14.4324 14.8801L14.6704 12.9103M15.0672 8.94264H19.4677M15.0672 8.94264L15.464 4.97498M15.0672 8.94264L14.8688 10.9265M14.6704 12.9103H17.3035M14.6704 12.9103L14.8688 10.9265M15.464 4.97498H13.1194M14.8688 10.9265H11.0995" stroke="black" stroke-width="0.5"/>
<path d="M1.57715 18.7463L6.6269 20.3334M30 18.7463L23.3632 20.9105" stroke="black" stroke-width="0.5"/>
<ellipse cx="14.5622" cy="29.8557" rx="13.5622" ry="11.8308" stroke="black" stroke-width="0.5"/>
<path d="M15.2217 34.2309C10.8433 34.9314 7.33824 32.1516 6.79329 31.6038C6.24835 31.0561 4.60268 31.1667 5.15001 33.1368C5.69734 35.107 9.08161 37.2882 14.5633 37.0774C20.045 36.8665 24.0879 34.7782 24.4147 33.1368C24.7414 31.4954 23.1757 31.3484 22.446 31.8228C21.8622 32.3336 19.6001 33.5303 15.2217 34.2309Z" stroke="black" stroke-width="0.5"/>
<path d="M19.2346 30.6756C19.6724 31.1135 19.7203 32.3373 19.7568 33.0671C20.1896 33.0671 21.921 32.3457 22.4981 31.7686C21.0751 29.5794 18.7969 30.2378 19.2346 30.6756Z" stroke="black" stroke-width="0.5"/>
<path d="M10.0902 30.8658C9.65253 31.3036 9.22436 32.2711 9.65744 33.3183C8.93523 33.1729 7.34835 32.056 6.8419 31.5835C8.26487 29.3944 10.528 30.428 10.0902 30.8658Z" stroke="black" stroke-width="0.5"/>
<path d="M17.5014 33.8207C17.4106 33.304 16.9026 32.9614 16.3668 33.0556C15.8309 33.1497 15.4701 33.645 15.5609 34.1617" stroke="black" stroke-width="0.5"/>
<path d="M11.6773 34.0016C11.7681 33.4849 12.2761 33.1423 12.812 33.2365C13.3478 33.3306 13.7086 33.8259 13.6178 34.3426" stroke="black" stroke-width="0.5"/>
<path d="M4.86289 38.2241C4.76631 40.2126 5.35489 44.3368 5.85958 45.7096C2.38925 45.8649 3.32748 46.6826 4.02974 46.8808C4.73201 47.0791 7.70012 46.9707 8.40609 46.6112C9.11206 46.2516 7.50146 45.7096 7.16367 45.7096C7.33629 43.4379 7.16367 40.0734 7.16367 39.8112" stroke="black" stroke-width="0.5"/>
<path d="M24.0541 38.2241C24.1507 40.2126 23.5621 44.3368 23.0574 45.7096C26.5277 45.8649 25.5895 46.6826 24.8872 46.8808C24.185 47.0791 21.2169 46.9707 20.5109 46.6112C19.8049 46.2516 21.4155 45.7096 21.7533 45.7096C21.5807 43.4379 21.7533 40.0734 21.7533 39.8112" stroke="black" stroke-width="0.5"/>
<path d="M15.7872 41.6868C15.8838 43.6656 15.689 47.2332 15.1843 48.5994C17.4478 50.3435 16.9958 50.7233 16.2935 50.9206C15.5913 51.1179 13.8804 50.0549 13.4082 49.3335C12.936 48.6121 13.5425 48.5994 13.8803 48.5994C13.7077 46.3386 13.6967 41.9477 13.6967 41.6868" stroke="black" stroke-width="0.5"/>
</svg>
