<?xml version="1.0" standalone="no"?><!DOCTYPE svg PUBLIC "-//W3C//DTD SVG 1.1//EN" "http://www.w3.org/Graphics/SVG/1.1/DTD/svg11.dtd"><svg t="1721713138537" class="icon" viewBox="0 0 1024 1024" version="1.1" xmlns="http://www.w3.org/2000/svg" p-id="4045" xmlns:xlink="http://www.w3.org/1999/xlink" width="200" height="200"><path d="M618.666667 138.666667a266.666667 266.666667 0 1 0 0 533.333333 266.666667 266.666667 0 0 0 0-533.333333zM245.333333 405.333333a373.333333 373.333333 0 1 1 136.277334 288.426667L304.298667 770.986667l113.152 113.152a53.333333 53.333333 0 0 1-75.434667 75.434666l-113.109333-113.152-82.986667 82.944a53.333333 53.333333 0 0 1-75.434667-75.392l82.986667-82.986666L40.32 657.92a53.333333 53.333333 0 1 1 75.434667-75.392l113.152 113.109333 80.725333-80.725333A371.626667 371.626667 0 0 1 245.333333 405.333333z" fill="#d4237a" p-id="4046"></path></svg>