<svg width="36" height="36" viewBox="0 0 36 36" fill="none" xmlns="http://www.w3.org/2000/svg">
<circle cx="18" cy="18" r="18" fill="#FF8A00"/>
<path d="M20 21.0384C20.3866 21.0384 20.7 20.725 20.7 20.3384C20.7 19.9518 20.3866 19.6384 20 19.6384V21.0384ZM18.7143 26.0384C19.1009 26.0384 19.4143 25.725 19.4143 25.3384C19.4143 24.9518 19.1009 24.6384 18.7143 24.6384V26.0384ZM13.5 21.0384H20V19.6384H13.5V21.0384ZM18.7143 24.6384H13.5V26.0384H18.7143V24.6384ZM20 19.6384H17V21.0384H20V19.6384ZM13.5 24.6384C12.5059 24.6384 11.7 23.8325 11.7 22.8384H10.3C10.3 24.6057 11.7327 26.0384 13.5 26.0384V24.6384ZM13.5 19.6384C11.7327 19.6384 10.3 21.0711 10.3 22.8384H11.7C11.7 21.8443 12.5059 21.0384 13.5 21.0384V19.6384Z" fill="white"/>
<path d="M16.7371 16.0488L16.4692 16.6955L16.7371 16.0488C16.3367 15.8829 15.9729 15.6399 15.6664 15.3334C15.36 15.027 15.1169 14.6632 14.9511 14.2629C14.7853 13.8625 14.7 13.4334 14.7 13.0001V12.9999C14.7 12.5666 14.7853 12.1375 14.9511 11.7371C15.1169 11.3368 15.36 10.973 15.6664 10.6666C15.9729 10.3601 16.3367 10.1171 16.7371 9.95121C17.1375 9.78536 17.5666 9.7 18 9.7C18.4334 9.7 18.8625 9.78536 19.2629 9.95121C19.6633 10.1171 20.0271 10.3601 20.3336 10.6666C20.64 10.973 20.8831 11.3368 21.0489 11.7371C21.2147 12.1375 21.3 12.5666 21.3 12.9999V13.0001C21.3 13.4334 21.2147 13.8625 21.0489 14.2629C20.8831 14.6632 20.64 15.027 20.3336 15.3334C20.0271 15.6399 19.6633 15.8829 19.2629 16.0488C18.8625 16.2146 18.4334 16.3 18 16.3C17.5666 16.3 17.1375 16.2146 16.7371 16.0488Z" stroke="white" stroke-width="1.4"/>
<path d="M22 22H28" stroke="white" stroke-width="1.4" stroke-linecap="round" stroke-linejoin="round"/>
<path d="M25 19L25 25" stroke="white" stroke-width="1.4" stroke-linecap="round" stroke-linejoin="round"/>
</svg>
