<svg width="24" height="24" viewBox="0 0 24 24" fill="none" xmlns="http://www.w3.org/2000/svg">
<path d="M12.8356 11.331C12.4513 11.4596 12.0395 11.5294 11.6112 11.5294C9.50624 11.5294 7.7998 9.8439 7.7998 7.76471C7.7998 5.68552 9.50624 4 11.6112 4C12.2076 4 12.772 4.13528 13.2746 4.37647C13.4409 4.45628 13.6005 4.54769 13.7522 4.64963" stroke="#374151" stroke-width="1.2"/>
<path d="M18.3996 8.23529C18.3996 10.2478 16.7831 11.8706 14.7996 11.8706C12.8161 11.8706 11.1996 10.2478 11.1996 8.23529C11.1996 6.22283 12.8161 4.6 14.7996 4.6C16.7831 4.6 18.3996 6.22283 18.3996 8.23529Z" stroke="#374151" stroke-width="1.2" stroke-linecap="round"/>
<path d="M5 19.9999C5 16.2352 7.8 14.3529 11.5333 14.4375" stroke="#374151" stroke-width="1.2" stroke-linecap="round"/>
<path d="M10.5996 19.9999C10.5996 16.8165 12.9996 15.2248 16.1996 15.2964" stroke="#374151" stroke-width="1.2" stroke-linecap="round"/>
</svg>
