<svg width="24" height="24" viewBox="0 0 24 24" fill="none" xmlns="http://www.w3.org/2000/svg">
<path d="M6 18C6 15.4753 8.0467 13.4286 10.5714 13.4286C13.0962 13.4286 15.1429 15.4753 15.1429 18H14C14 16.1065 12.465 14.5714 10.5714 14.5714C8.67788 14.5714 7.14286 16.1065 7.14286 18H6ZM10.5714 12.8571C8.67714 12.8571 7.14286 11.3229 7.14286 9.42857C7.14286 7.53429 8.67714 6 10.5714 6C12.4657 6 14 7.53429 14 9.42857C14 11.3229 12.4657 12.8571 10.5714 12.8571ZM10.5714 11.7143C11.8343 11.7143 12.8571 10.6914 12.8571 9.42857C12.8571 8.16571 11.8343 7.14286 10.5714 7.14286C9.30857 7.14286 8.28571 8.16571 8.28571 9.42857C8.28571 10.6914 9.30857 11.7143 10.5714 11.7143ZM15.305 13.8302C16.8939 14.5463 18 16.144 18 18H16.8571C16.8571 16.608 16.0276 15.4098 14.8359 14.8726L15.305 13.8302ZM14.9121 7.37898C16.0539 7.84973 16.8571 8.97349 16.8571 10.2857C16.8571 11.9258 15.6024 13.2715 14 13.4158V12.2655C14.9695 12.127 15.7143 11.2937 15.7143 10.2857C15.7143 9.49677 15.2581 8.81487 14.5949 8.48934L14.9121 7.37898Z" fill="#617086"/>
</svg>
