<svg width="24" height="24" viewBox="0 0 24 24" fill="none" xmlns="http://www.w3.org/2000/svg">
<path d="M14.5124 9.37105L17.3046 6.57895H13.6842V5H20V11.3158H18.4211V7.69543L15.6289 10.4875C16.3901 11.4837 16.8421 12.7286 16.8421 14.0789C16.8421 17.349 14.1911 20 10.9211 20C7.65094 20 5 17.349 5 14.0789C5 10.8089 7.65094 8.15789 10.9211 8.15789C12.2714 8.15789 13.5163 8.60998 14.5124 9.37105ZM10.9211 18.4211C13.3192 18.4211 15.2632 16.4771 15.2632 14.0789C15.2632 11.6808 13.3192 9.73684 10.9211 9.73684C8.52297 9.73684 6.57895 11.6808 6.57895 14.0789C6.57895 16.4771 8.52297 18.4211 10.9211 18.4211Z" fill="#0078FF"/>
</svg>
