<svg width="16" height="16" viewBox="0 0 16 16" fill="none" xmlns="http://www.w3.org/2000/svg">
<path d="M12.5557 13.8444L12.4283 13.7802H12.2857H6.9C5.77 13.7802 4.95858 13.7798 4.32167 13.7277C3.69176 13.6763 3.28558 13.5774 2.95643 13.4097C2.31668 13.0837 1.79655 12.5636 1.47058 11.9238C1.30287 11.5947 1.20397 11.1885 1.1525 10.5586C1.10047 9.92167 1.1 9.11025 1.1 7.98025V6.4C1.1 5.26999 1.10047 4.45857 1.1525 3.82167C1.20397 3.19176 1.30287 2.78558 1.47058 2.45643C1.79655 1.81668 2.31668 1.29655 2.95643 0.970578C3.28558 0.802871 3.69176 0.703969 4.32167 0.652504C4.95858 0.600467 5.76999 0.6 6.9 0.6H9.1C10.23 0.6 11.0414 0.600467 11.6783 0.652504C12.3082 0.703969 12.7144 0.802871 13.0436 0.970578C13.6833 1.29655 14.2035 1.81668 14.5294 2.45643C14.6971 2.78558 14.796 3.19176 14.8475 3.82167C14.8995 4.45858 14.9 5.26999 14.9 6.4V13.4021C14.9 13.8437 14.8994 14.1335 14.8799 14.347C14.8705 14.4495 14.8581 14.5149 14.8462 14.557C14.8406 14.577 14.8356 14.5896 14.8324 14.5967C14.8316 14.5983 14.8309 14.5997 14.8304 14.6009C14.8297 14.6022 14.8292 14.6031 14.8288 14.6038L14.8276 14.6058C14.7643 14.6961 14.6666 14.7562 14.5576 14.7721L14.5553 14.7723C14.5537 14.7724 14.5511 14.7724 14.5472 14.7723C14.5394 14.772 14.526 14.7708 14.5056 14.7668C14.4626 14.7585 14.3987 14.7401 14.3029 14.7023C14.1035 14.6237 13.8444 14.4938 13.45 14.2951L12.5557 13.8444Z" stroke="#030712" stroke-width="1.2"/>
<path d="M6 7.62476C6.45714 7.62476 8.85714 7.62476 10 7.62476" stroke="#030712" stroke-width="1.2" stroke-linecap="round"/>
</svg>
