<svg width="24" height="24" viewBox="0 0 24 24" fill="none" xmlns="http://www.w3.org/2000/svg">
<path d="M13.7 5H10.3C8.61984 5 7.77976 5 7.13803 5.32698C6.57354 5.6146 6.1146 6.07354 5.82698 6.63803C5.5 7.27976 5.5 8.11984 5.5 9.8V14.2C5.5 15.8802 5.5 16.7202 5.82698 17.362C6.1146 17.9265 6.57354 18.3854 7.13803 18.673C7.77976 19 8.61984 19 10.3 19H13.7C15.3802 19 16.2202 19 16.862 18.673C17.4265 18.3854 17.8854 17.9265 18.173 17.362C18.5 16.7202 18.5 15.8802 18.5 14.2V9.8C18.5 8.11984 18.5 7.27976 18.173 6.63803C17.8854 6.07354 17.4265 5.6146 16.862 5.32698C16.2202 5 15.3802 5 13.7 5Z" stroke="#374151" stroke-width="1.2" stroke-linecap="round"/>
<path d="M9.5 10H14.5" stroke="#374151" stroke-linecap="round"/>
<path d="M9.5 14H11.5" stroke="#374151" stroke-linecap="round"/>
</svg>
