<svg width="24" height="24" viewBox="0 0 24 24" fill="none" xmlns="http://www.w3.org/2000/svg">
<path d="M15.7391 10.1111L17.165 8.07619C17.6619 7.36705 17.6411 6.41746 17.1136 5.73077V5.73077V5.73077C16.5425 4.98722 15.7195 4.47777 14.7993 4.29808L14.4562 4.23109C13.7333 4.08993 12.9936 4.3772 12.5555 4.96931L11.2174 6.77778M15.7391 10.1111L9.77723 18.102C9.61404 18.3207 9.36854 18.4633 9.09768 18.4965L5.22439 18.9724C5.10516 18.9871 5 18.8941 5 18.7739V15.4431C5 15.2275 5.06962 15.0178 5.1985 14.8451L11.2174 6.77778M15.7391 10.1111L11.2174 6.77778" stroke="#374151" stroke-width="1.2"/>
<path d="M9 14.5L11.5 11" stroke="#374151" stroke-linecap="round"/>
</svg>
