<svg width="24" height="24" viewBox="0 0 24 24" fill="none" xmlns="http://www.w3.org/2000/svg">
<path d="M18.5 13.0769L18.5 8.5V8.5C18.5 8.03558 18.5 7.80337 18.4743 7.60842C18.2971 6.26222 17.2378 5.2029 15.8916 5.02567C15.6966 5 15.4644 5 15 5L10.3 5C8.61984 5 7.77976 5 7.13803 5.32698C6.57354 5.6146 6.1146 6.07354 5.82698 6.63803C5.5 7.27976 5.5 8.11984 5.5 9.8L5.5 14.2C5.5 15.8802 5.5 16.7202 5.82698 17.362C6.1146 17.9265 6.57354 18.3854 7.13803 18.673C7.77976 19 8.61984 19 10.3 19L10.9167 19" stroke="#374151" stroke-width="1.2" stroke-linecap="round"/>
<path d="M13.9998 18.1213L18.2374 18.1189M18.2374 18.1189L16.6521 16.5313M18.2374 18.1189L16.6505 19.7132" stroke="#374151" stroke-linecap="round" stroke-linejoin="round"/>
</svg>
