<svg width="24" height="24" viewBox="0 0 24 24" fill="none" xmlns="http://www.w3.org/2000/svg">
<path d="M12 5C15.866 5 19 8.13401 19 12C19 15.866 15.866 19 12 19C8.13401 19 5 15.866 5 12C5 8.13401 8.13401 5 12 5Z" stroke="#4B5563" stroke-width="1.2" stroke-linecap="round"/>
<path d="M14.6142 13.6239C14.7179 13.5204 14.8 13.3989 14.8605 13.2593C14.9216 13.1198 14.9521 12.9774 14.9521 12.8332C14.9521 12.5367 14.8605 12.285 14.6784 12.0774C14.5024 11.873 14.2463 11.7392 13.9643 11.7042L13.8624 11.6983L13.7746 11.6856C13.6396 11.6687 13.5722 11.6216 13.5722 11.5431C13.5722 11.4612 13.6619 11.3315 13.8427 11.1548C14.0324 10.9652 14.3322 10.774 14.7427 10.5804C14.9146 10.4984 14.9999 10.3955 14.9999 10.2722C15.001 10.236 14.9938 10.1999 14.9786 10.1663C14.9635 10.1328 14.9408 10.1025 14.912 10.0775C14.8824 10.0518 14.8474 10.0317 14.8092 10.0184C14.7709 10.0051 14.7302 9.99892 14.6893 10.0002C14.4639 10.0002 14.1527 10.1199 13.7568 10.3583C13.3069 10.6212 12.9244 10.9696 12.6352 11.3798C12.3551 11.7809 12.2157 12.1768 12.2157 12.5681C12.2157 12.753 12.2539 12.9373 12.3303 13.1204C12.4067 13.3035 12.5111 13.4587 12.6416 13.5866C12.9165 13.8622 13.2475 14 13.6345 14C14.0311 14 14.3576 13.8744 14.6142 13.6233V13.6239ZM11.387 13.6239C11.4901 13.5204 11.5722 13.3983 11.6327 13.2564C11.6938 13.114 11.7237 12.9733 11.7237 12.8332C11.7237 12.5367 11.6346 12.2844 11.4544 12.0739C11.3695 11.9722 11.2631 11.8871 11.1415 11.8236C11.02 11.7601 10.8857 11.7195 10.7466 11.7042L10.6391 11.6983L10.5582 11.6856C10.4233 11.6687 10.3558 11.6216 10.3558 11.5431C10.3558 11.4612 10.4436 11.3315 10.6187 11.1548C10.8033 10.9734 11.1024 10.7821 11.5162 10.5804C11.6868 10.4984 11.7721 10.3955 11.7721 10.2722C11.7732 10.236 11.766 10.1999 11.7508 10.1663C11.7357 10.1328 11.713 10.1025 11.6842 10.0775C11.6546 10.0517 11.6196 10.0316 11.5814 10.0184C11.5431 10.0051 11.5023 9.99889 11.4614 10.0002C11.2367 10.0002 10.9268 10.1199 10.5308 10.3583C10.0822 10.6209 9.70147 10.9694 9.41501 11.3798C9.13813 11.7809 9 12.1768 9 12.5681C9 12.753 9.03819 12.9373 9.11457 13.1204C9.19096 13.3035 9.29471 13.4587 9.4252 13.5866C9.6989 13.8622 10.0274 14 10.4093 14C10.8096 14 11.1349 13.8744 11.387 13.6239Z" fill="#4B5563"/>
</svg>
